<svg xmlns="http://www.w3.org/2000/svg" viewBox="0 0 50 50"><g fill="#F78B24" fill-rule="evenodd"><path d="M22.5 49.1A24.4 24.4 0 0 1 3 14.1a24 24 0 0 1 35.4-9.7A24.3 24.3 0 0 1 49 26.2c-.1.2-.1 0-.2-.6a22 22 0 0 0-3.3-9.4A21 21 0 0 0 21 7.5 21.4 21.4 0 0 0 25.5 49a48.7 48.7 0 0 1-3 .2z"/><path d="M27.7 46.1A17.1 17.1 0 0 1 12 26.6a17.1 17.1 0 0 1 24.1-13.3l.9.5-.8.3a7.8 7.8 0 0 0-4.3 8 7.8 7.8 0 0 0 5.6 6.5 8 8 0 0 0 4 0 7.7 7.7 0 0 0 3.5-2.2l.7-.6.2 1.2a17.3 17.3 0 0 1-6.7 15.7 17.1 17.1 0 0 1-11.6 3.4z"/></g></svg>