<svg xmlns="http://www.w3.org/2000/svg" viewBox="0 0 45 50"><path fill="#F9DA32" fill-rule="evenodd" d="M0 .2L.3.1h20.2l1 .1h1c.4.2.7.3 1 .2l1 .2.9.2c.2-.1.4.2.7.2.3 0 .5.1.8 0l1.2.5c1 .3 2 .6 2.9 1.1l2.4 1.2c.2.1.3.3.5.3l1.3.9.8.6 1.2 1 1.8 1.7.9 1.1.7 1 1 1.4.7 1.3 1 2 .2.8.5 1.3.1.5.4 1.4v.6c.3.3.2.7.3 1l.1 1.1.2 1.2v4.3c-.1.5-.3 1-.2 1.5l-.2 1-.1.5-.1.8c-.3.5-.3 1-.5 1.6l-.2.7a3 3 0 0 0-.3 1l-.4.9-.5 1c-.5 1-1.2 2.2-2 3.3L39 41.7l-1.7 1.7-1.3 1c-.5.5-1 .8-1.6 1.1l-2 1.2c-.3.2-.7.3-1 .6l-1.5.6-1.8.6-1 .3-.9.3-.8.1c-.2 0-.5 0-.7.2l-1.1.2h-1c-.3.2-.7.1-1 .2-.4 0-.8 0-1.1.2H.4c-.2 0-.3-.2-.3-.3V.2zm25.4 7.2a4 4 0 0 1-1 0l-1.3.4c-.5 0-.9.3-1.3.4l-1.9 1-1.2.8-1.8 1.7c-.4.6-1 1.2-1.2 1.9-.4.4-.5 1-.8 1.5l-.4 1-.2 1c-.2.4-.2.8-.1 1.2l-.2.8v1.1l.2.7v1c.2.3 0 .6.2.8l.1.4.4 1 .5 1.2 1 1.6.4.6c.4.6 1 1 1.5 1.5l1 .7.8.6 1.4.7c.4 0 .7.3 1 .4l.8.2.6.1 1 .2h2.7l1.3-.2.6-.2 1.4-.4c1-.4 2-1 2.8-1.6.5-.2.7-.7 1.1-1 .2 0 .4-.3.5-.5l1-1.2 1-1.4.5-1.2c.2-.4.2-1 .5-1.3 0-.3.2-.6.1-1l.2-1v-3c-.2-.3-.1-.8-.3-1.2L38 16l-.7-1.8a11 11 0 0 0-1.2-2c-.3-.2-.4-.5-.6-.8l-1.3-1.2c-1-.7-1.9-1.3-2.9-1.8l-1-.4-.8-.2c-.3-.2-.6-.2-.8-.2-.3-.1-.6-.2-.8-.1l-1-.2h-1.6z"/></svg>