<svg xmlns="http://www.w3.org/2000/svg" viewBox="0 0 50 50"><path fill="#411299" fill-rule="evenodd" d="M24.07.02A24.92 24.92 0 0 1 49.4 19.94 24.95 24.95 0 0 1 25.77 49.9c-4.11.14-8.26-.75-11.94-2.6A25.04 25.04 0 0 1 1.34 33.05a25.02 25.02 0 0 1 1.3-19.28A25.05 25.05 0 0 1 24.08.02zm-8.42 33.3a8.15 8.15 0 0 0 4 5.49c2.17 1.21 4.76 1.44 7.2 1.18 2-.22 3.98-1 5.45-2.4a8.22 8.22 0 0 0 2.33-4.27c-1.2-.02-2.38 0-3.57-.03-.57.09-1.14-.04-1.7.02-1.24.01-2.47 0-3.7-.01-.65.06-1.3-.04-1.96.01-1.17-.05-2.34.04-3.5-.02-1.52.08-3.03-.04-4.55.04z"/></svg>