<svg xmlns="http://www.w3.org/2000/svg" viewBox="0 0 50 50"><ellipse cx="23.6" cy="28.2" rx="1" ry="1"/><ellipse cx="26.4" cy="28.2" rx="1" ry="1"/><path d="M25 16.8A10.3 10.2 0 0 1 41.5 14a20 19.7 0 0 0-33 0A10.3 10.2 0 0 1 25 16.8z"/><path d="M50 21.3a5.5 5.4 0 0 0-7-5.2 10.3 10.2 0 0 1-8.4 15.4 10.3 10.1 0 0 1 .7 3.7v.8H14.7a10.2 10.2 0 0 1 0-.8 10.3 10.1 0 0 1 .7-3.7A10.3 10.2 0 0 1 7 16 5.5 5.4 0 1 0 5 26.7l.5 7.2.9-1.4 2.4 7 .4-2.1 5.6 6.9-.3-2.3a19.8 19.6 0 0 0 6.3 2.5 10.3 10.2 0 0 1-6-7.2h20.2a10.3 10.2 0 0 1-6 7.2 19.8 19.6 0 0 0 6.3-2.5l-.3 2.3 5.6-7 .4 2.2 2.4-7 .9 1.4.5-7.2a5.5 5.4 0 0 0 5.1-5.4z"/><path d="M36.8 26a5 5 0 0 0 1.2-1 5.2 5.2 0 0 0 .5-.7 5.4 5.4 0 0 0 .5-.9l.1-.4a5 5 0 0 0 .2-1 5 4.9 0 0 0 0-.5 4.8 4.8 0 0 0 0-.5 4.9 4.8 0 0 0-.3-1 4.9 4.8 0 0 0-.5-.9 4.8 4.7 0 0 0-.9-1 5 5 0 0 0-1.1-.8 5 5 0 0 0-1.8-.4 4.5 4.5 0 0 0-.5 0h-.4a4.6 4.6 0 0 0-.5.1 4.4 4.4 0 0 0-.4.2 4.5 4.5 0 0 0-.5.2 4.6 4.5 0 0 0-.4.2 4.4 4.3 0 0 0-.3.2 7.6 7.6 0 0 0-.4.3 4.3 4.2 0 0 0-.3.3 5.5 5.5 0 0 0-.2.4 4.5 4.5 0 0 0-.7 1.5 4.4 4.4 0 0 0-.2.8 3.6 3.6 0 0 0 0 .8 4.2 4.1 0 0 0 .5 1.3 4.4 4.3 0 0 0 .2.3 4 4 0 0 0 .5.7 4.1 4 0 0 0 .6.5 4.2 4.1 0 0 0 1.4.6 4 4 0 0 0 .8.1 4 3.9 0 0 0 .7 0 3.9 3.8 0 0 0 .8-.2 3.7 3.7 0 0 0 .4-.2 3.8 3.8 0 0 0 .3-.2 3.7 3.6 0 0 0 .6-.4 3.8 3.7 0 0 0 .5-.6 3.8 3.8 0 0 0 .3-.6 3.8 3.8 0 0 0 .3-.6 3.7 3.7 0 0 0 0-.7 3.6 3.6 0 0 0 0-.7 3.5 3.5 0 0 0-.5-1.4 3.4 3.3 0 0 0-.4-.5 3.4 3.4 0 0 0-.5-.4 3.5 3.5 0 0 0-.6-.3 3.4 3.4 0 0 0-.6-.2 3.4 3.3 0 0 0-.7-.1 3.1 3.1 0 0 0-1.8.5 3 3 0 0 0-.5.4 3 3 0 0 0-.4.4 3.1 3.1 0 0 0-.2.5 3 3 0 0 0-.2.6 3 3 0 0 0 0 .5 2.8 2.8 0 0 0 0 .6 2.8 2.8 0 0 0 .1.6 2.8 2.8 0 0 0 .3.5 2.7 2.7 0 0 0 .7.7 2.8 2.7 0 0 0 1 .4 2.7 2.6 0 0 0 .5 0 2.5 2.4 0 0 0 1.5-.4 2.3 2.3 0 0 0 .3-.3 2.4 2.4 0 0 0 .6-1.1 2.3 2.3 0 0 0 0-.5 2.2 2.1 0 0 0 0-.4 2.1 2.1 0 0 0-.3-.9 2 2 0 0 0-1.3-.7 2 2 0 0 0-.4 0 1.9 1.8 0 0 0-.4 0 1.8 1.8 0 0 0-.7.3 1.7 1.7 0 0 0-.2.2 1.8 1.7 0 0 0-.2.3 1.7 1.7 0 0 0-.2.6 1.6 1.6 0 0 0 0 .3 1.5 1.4 0 0 0 .3.9 1.3 1.3 0 0 0 .2.1 1.4 1.4 0 0 0 .4.3 1.4 1.3 0 0 0 .3 0 1.2 1.2 0 0 0 .3 0 1.2 1.2 0 0 0 .2 0 1.2 1.2 0 0 0 .3-.1 1.1 1.1 0 0 0 .2-.2 1 1 0 0 0 .2-.3 1 1 0 0 0 0-.4.9.9 0 0 0 0-.2.9.8 0 0 0 0-.2l-.4-.4c0 .3 0 .6-.2.8a.6.6 0 0 1-.5.1.5.5 0 0 1-.2 0 .5.5 0 0 1 0-.1.5.5 0 0 1-.2-.3.7.7 0 0 1 0-.2.8.8 0 0 1 .1-.3.8.8 0 0 1 .2-.2.8.8 0 0 1 .2-.1 1 .9 0 0 1 .1 0 1 1 0 0 1 .2 0 1 1 0 0 1 .2 0 1.1 1.1 0 0 1 .6.2 1 1 0 0 1 .1.2 1.2 1.1 0 0 1 .2.2 1.2 1.2 0 0 1 0 .3 1.3 1.3 0 0 1 0 .2 1.4 1.4 0 0 1 0 .3 1.5 1.5 0 0 1-.2.5 1.5 1.5 0 0 1-.1.2 1.4 1.4 0 0 1-.3.2 1.5 1.5 0 0 1-.3.1 1.6 1.6 0 0 1-.6.1 1.7 1.7 0 0 1-.3 0 1.8 1.8 0 0 1-.3-.1 1.8 1.8 0 0 1-.3-.2 1.8 1.8 0 0 1-.3-.2 1.7 1.7 0 0 1-.2-.2 1.9 1.8 0 0 1-.3-.8 2 2 0 0 1 0-.4 2 2 0 0 1 0-.3 2.2 2.1 0 0 1 .1-.4 2.2 2.2 0 0 1 .2-.4 2.2 2.1 0 0 1 .3-.3 2 2 0 0 1 .3-.2 2.2 2.1 0 0 1 .4-.3 2.2 2.2 0 0 1 .5 0 2.4 2.3 0 0 1 .4-.1 2.5 2.4 0 0 1 .5 0 2.5 2.5 0 0 1 1.2.7 2.4 2.4 0 0 1 .3.4 2.5 2.5 0 0 1 .3.5 2.6 2.6 0 0 1 0 .5 2.7 2.7 0 0 1 .1.5 2.9 2.8 0 0 1-.2 1 2.9 2.8 0 0 1-.6 1 2.8 2.8 0 0 1-.5.3 2.9 2.9 0 0 1-.5.2 3 2.9 0 0 1-.6.2 3.1 3 0 0 1-.6 0 3.2 3.1 0 0 1-.6 0 3.3 3.2 0 0 1-1.1-.6 3.2 3.2 0 0 1-.5-.4 3.1 3.1 0 0 1-.3-.5 3.2 3.2 0 0 1-.5-1.2 3.4 3.4 0 0 1 0-.7 3.5 3.5 0 0 1 0-.6 3.6 3.5 0 0 1 .3-.6 3.6 3.6 0 0 1 .3-.6 3.5 3.5 0 0 1 .5-.5 3.5 3.5 0 0 1 1.2-.8 3.6 3.6 0 0 1 .7-.2 3.8 3.8 0 0 1 .7 0 4 3.9 0 0 1 .8.1 4 4 0 0 1 .7.3 4 3.9 0 0 1 1.2.8 3.8 3.7 0 0 1 .4.6 3.9 3.9 0 0 1 .4.8 4 4 0 0 1 .2.7 4.2 4.1 0 0 1 0 .8 4.3 4.2 0 0 1-.1.8 4.4 4.3 0 0 1-.3.8 4.3 4.3 0 0 1-.4.7 4.3 4.2 0 0 1-.5.6 4.1 4 0 0 1-.3.2 4 3.9 0 0 1-.4.3 4.2 4.1 0 0 1-.4.2 4.2 4.2 0 0 1-.4.2 4.3 4.3 0 0 1-.4 0 4.4 4.3 0 0 1-.5.2 4.3 4.3 0 0 1-.4 0 4.3 4.2 0 0 1-.4 0 4.5 4.5 0 0 1-.9-.1 5 5 0 0 1-.8-.3 4.6 4.6 0 0 1-1.1-.7 4.6 4.5 0 0 1-.6-.7 4.5 4.5 0 0 1-.3-.4 4.7 4.7 0 0 1-.2-.4 4.6 4.6 0 0 1-.2-.4 4.7 4.7 0 0 1-.1-.5 5 5 0 0 1-.1-.4 4.3 4.3 0 0 1 0-.5V21a4.9 4.9 0 0 1 .2-1.3 4.3 4.3 0 0 1 .2-.5 4.8 4.8 0 0 1 .8-1.2l.3-.3a4.8 4.7 0 0 1 .4-.3 4.9 4.8 0 0 1 .4-.3 5 5 0 0 1 .5-.2 5 5 0 0 1 .5-.2 5 4.9 0 0 1 .5-.2 5 5 0 0 1 .5 0 5 5 0 0 1 1 0 5.1 5.1 0 0 1 1 0 5.8 5.8 0 0 1 1 .4 5.6 5.6 0 0 1 .8.5 5.4 5.4 0 0 1 .8.7 5.3 5.2 0 0 1 .6.8l.2.3a5.5 5.4 0 1 0-7.5 7 5.4 5.4 0 0 0 2.5.6 5.5 5.4 0 0 0 1.7-.3l.4-.2a5.1 5 0 0 0 .5-.2zm-18.4 0a5 5 0 0 0 1.2-1 5.2 5.2 0 0 0 .5-.7 4.9 4.9 0 0 0 .5-.9 4.5 4.5 0 0 0 .1-.4 5 5 0 0 0 .1-1 5 4.9 0 0 0 0-.5 4.8 4.8 0 0 0 0-.5 4.9 4.8 0 0 0-.2-1 4.9 4.8 0 0 0-.5-.9 4.8 4.7 0 0 0-.9-1 5 5 0 0 0-1.2-.8 5 5 0 0 0-1.7-.4 4.5 4.5 0 0 0-.5 0h-.4a4.6 4.6 0 0 0-.5.1 4.4 4.4 0 0 0-.4.2 4.5 4.5 0 0 0-.5.2 4.6 4.5 0 0 0-.4.2 4.4 4.3 0 0 0-.4.2 7.6 7.6 0 0 0-.3.3 4.3 4.2 0 0 0-.3.3 5.5 5.5 0 0 0-.2.4 4.5 4.5 0 0 0-.8 1.5 4.4 4.4 0 0 0 0 .8 3.6 3.6 0 0 0 0 .8 4.2 4.1 0 0 0 .3 1.3 4.4 4.3 0 0 0 .3.3 4 4 0 0 0 .5.7 4.1 4 0 0 0 .6.5 4.2 4.1 0 0 0 1.4.6 4 4 0 0 0 .8.1 4 3.9 0 0 0 .7 0 3.9 3.8 0 0 0 .8-.2 3.7 3.7 0 0 0 .4-.2 3.8 3.8 0 0 0 .3-.2 3.7 3.6 0 0 0 .6-.4 3.8 3.7 0 0 0 .5-.6 3.8 3.8 0 0 0 .3-.6 3.8 3.8 0 0 0 .2-.6 3.7 3.7 0 0 0 .1-.7 3.6 3.6 0 0 0 0-.7 3.5 3.5 0 0 0-.5-1.4 3.4 3.3 0 0 0-.4-.5 3.4 3.4 0 0 0-.5-.4 3.5 3.5 0 0 0-.6-.3 3.4 3.4 0 0 0-.6-.2 3.4 3.3 0 0 0-.6-.1 3.1 3.1 0 0 0-2 .5 3 3 0 0 0-.4.4 3 3 0 0 0-.4.4 3.1 3.1 0 0 0-.2.5 3 3 0 0 0-.2.6 3 3 0 0 0 0 .5 2.8 2.8 0 0 0 0 .6 2.8 2.8 0 0 0 .1.6 2.8 2.8 0 0 0 .3.5 2.7 2.7 0 0 0 .7.7 2.8 2.7 0 0 0 1 .4 2.7 2.6 0 0 0 .5 0 2.5 2.4 0 0 0 1.5-.4 2.3 2.3 0 0 0 .3-.3 2.4 2.4 0 0 0 .6-1.1 2.3 2.3 0 0 0 0-.5 2.2 2.1 0 0 0 0-.4 2.1 2.1 0 0 0-.3-.9 2 2 0 0 0-1.3-.7 2 2 0 0 0-.4 0 1.9 1.8 0 0 0-.4 0 1.8 1.8 0 0 0-.7.3 1.7 1.7 0 0 0-.2.2 1.8 1.7 0 0 0-.2.3 1.7 1.7 0 0 0-.2.6 1.6 1.6 0 0 0 0 .3 1.5 1.4 0 0 0 .3.9 1.3 1.3 0 0 0 .2.1 1.4 1.4 0 0 0 .4.3 1.4 1.3 0 0 0 .3 0 1.2 1.2 0 0 0 .2 0 1.2 1.2 0 0 0 .3 0 1.2 1.2 0 0 0 .3-.1 1.1 1.1 0 0 0 .2-.2 1 1 0 0 0 .2-.3 1 1 0 0 0 0-.4.9.9 0 0 0 0-.2.9.8 0 0 0 0-.2l-.4-.4c0 .3 0 .6-.2.8a.6.6 0 0 1-.5.1.5.5 0 0 1-.2 0 .5.5 0 0 1-.1-.1.5.5 0 0 1-.1-.3.7.7 0 0 1 0-.2.8.8 0 0 1 0-.3.8.8 0 0 1 .3-.2.8.8 0 0 1 .2 0 1 .9 0 0 1 .1-.2 1 1 0 0 1 .2 0 1 1 0 0 1 .2 0 1.1 1.1 0 0 1 .6.3 1 1 0 0 1 .1.2 1.2 1.1 0 0 1 .1.2 1.2 1.2 0 0 1 .1.3 1.3 1.3 0 0 1 0 .2 1.4 1.4 0 0 1 0 .3 1.5 1.5 0 0 1-.2.5 1.5 1.5 0 0 1-.2.2 1.4 1.4 0 0 1-.2.2 1.5 1.5 0 0 1-.3.1 1.6 1.6 0 0 1-.6.1 1.7 1.7 0 0 1-.3 0 1.8 1.8 0 0 1-.4-.1 1.8 1.8 0 0 1-.3-.2 1.8 1.8 0 0 1-.2-.2 1.7 1.7 0 0 1-.2-.2 1.9 1.8 0 0 1-.3-.8 2 2 0 0 1 0-.4 2 2 0 0 1 0-.3 2.2 2.1 0 0 1 .1-.4 2.2 2.2 0 0 1 .2-.4 2.2 2.1 0 0 1 .3-.3 2 2 0 0 1 .3-.2 2.2 2.1 0 0 1 .4-.3 2.2 2.2 0 0 1 .5 0 2.4 2.3 0 0 1 .4-.1 2.5 2.4 0 0 1 .5 0 2.5 2.5 0 0 1 1.2.7 2.4 2.4 0 0 1 .3.4 2.5 2.5 0 0 1 .2.5 2.6 2.6 0 0 1 .2.5 2.7 2.7 0 0 1 0 .5 2.9 2.8 0 0 1-.2 1 2.9 2.8 0 0 1-.7 1 2.8 2.8 0 0 1-.4.2 2.9 2.9 0 0 1-.5.3 3 2.9 0 0 1-.6.2 3.1 3 0 0 1-.6 0 3.2 3.1 0 0 1-.6 0 3.3 3.2 0 0 1-1.1-.6 3.2 3.2 0 0 1-.5-.4 3.1 3.1 0 0 1-.4-.5 3.2 3.2 0 0 1-.4-1.2 3.4 3.4 0 0 1 0-.7 3.5 3.5 0 0 1 0-.6 3.6 3.5 0 0 1 .3-.6 3.6 3.6 0 0 1 .3-.6 3.5 3.5 0 0 1 .5-.5 3.5 3.5 0 0 1 1.2-.8 3.6 3.6 0 0 1 .7-.2 3.8 3.8 0 0 1 .7 0 4 3.9 0 0 1 .8.1 4 4 0 0 1 .7.3 4 3.9 0 0 1 1.2.8 3.8 3.7 0 0 1 .4.6 3.9 3.9 0 0 1 .4.8 4 4 0 0 1 .2.7 4.2 4.1 0 0 1 0 .8 4.3 4.2 0 0 1-.1.8 4.4 4.3 0 0 1-.3.8 4.3 4.3 0 0 1-.4.7 4.3 4.2 0 0 1-.5.6 4.1 4 0 0 1-.3.2 4 3.9 0 0 1-.4.3 4.2 4.1 0 0 1-.4.2 4.2 4.2 0 0 1-.4.2 4.3 4.3 0 0 1-.4 0 4.4 4.3 0 0 1-.5.2 4.3 4.3 0 0 1-.4 0 4.3 4.2 0 0 1-.4 0 4.5 4.5 0 0 1-.9-.1 5 5 0 0 1-.8-.3 4.7 4.7 0 0 1-1.1-.7 4.6 4.5 0 0 1-.6-.7 4.5 4.5 0 0 1-.3-.4 4.7 4.7 0 0 1-.2-.4 4.6 4.6 0 0 1-.2-.4 4.7 4.7 0 0 1-.1-.5 5 5 0 0 1-.1-.4 4.3 4.3 0 0 1 0-.5V21a4.9 4.9 0 0 1 .2-1.3 4.3 4.3 0 0 1 .2-.5l.2-.4a4.8 4.8 0 0 1 .6-.8l.3-.3a4.8 4.7 0 0 1 .4-.3 4.9 4.8 0 0 1 .4-.3 5 5 0 0 1 .5-.2 5 5 0 0 1 .5-.2 5 4.9 0 0 1 .5-.2 5 5 0 0 1 .5 0 5 5 0 0 1 1 0 5.1 5.1 0 0 1 1 0 5.8 5.8 0 0 1 1 .4 5.6 5.6 0 0 1 .8.5 5.4 5.4 0 0 1 .8.7 5.3 5.2 0 0 1 .6.8l.2.3a5.5 5.4 0 1 0-7.5 7 5.4 5.4 0 0 0 2.5.6 5.5 5.4 0 0 0 1.7-.3l.4-.2a5.1 5 0 0 0 .5-.2z"/></svg>