<svg xmlns="http://www.w3.org/2000/svg" viewBox="0 0 50 32"><g fill="#F3962F" fill-rule="evenodd"><path d="M13 0h6.2v.1H21l2.1.3h.9l1.4.4h.2l.7.2.2.1.8.4c1 .5 1.9 1.3 2.4 2.4l.4.8.4 1 .3 1.3v.4l.3 2V21l-.2 2.2v.5h-.1l-.3 1.5v.3c-.2.3-.2.6-.3 1a7.8 7.8 0 0 1-.5.9c-.5 1-1.3 1.9-2.4 2.4a5.8 5.8 0 0 1-1 .5l-1.1.3H25l-2 .3c-2 .3-4 .3-6 .3H10.9L9.1 31h-.7v-.1c-.7 0-1.3-.1-2-.3l-.5-.1-.8-.2H5a6.7 6.7 0 0 0-.8-.4 5.8 5.8 0 0 1-2.9-2.8c0-.3-.2-.5-.3-.8a43.7 43.7 0 0 1-.4-1.5l-.3-1.9v-.6L0 18.9v-5.6l.1-4.2v-.7h.1v-.7L.8 6c0-.4.2-.7.3-1v-.2l.1-.1.2-.6C2 3 2.8 2.1 4 1.5l.7-.3a12 12 0 0 1 3-.8l3-.2 2.5-.1zm-2.2 8c-.5.4-.8.9-1 1.4v.2l-.3 1.2v.6h-.1l-.2 3.3c0 1.6 0 3.3.2 4.9v.6l.4 1.3v.2c.3.7.7 1.3 1.4 1.6.5.1 1.1.1 1.6 0L14 23l.3-.2.6-.2.8-.4 2.5-1.4 1.3-.7.5-.4c1-.6 1.9-1.2 2.7-2 .5-.4 1-1 1.2-1.7v-.8l-.4-.8a9.2 9.2 0 0 0-2.2-2l-1.7-1.1-.5-.3-1.3-.7-.5-.4-.7-.3-.7-.4-.7-.4c-.3 0-.5-.2-.8-.3a8.3 8.3 0 0 0-2.3-.6h-.3c-.3 0-.6 0-.9.2zM45 6.7l1.5-.2h.3c.4 0 .8 0 1.1.2.5.3.9.8 1.1 1.4a5.9 5.9 0 0 1 .4 1l.3 1.8v.8h.1c.2 2.7.2 5.5 0 8.2v.7l-.4 1.8v.2c-.2.6-.5 1.2-1 1.7l-.4.3c-.8.4-1.6.3-2.4 0h-.2c-.4 0-.7-.2-1-.3l-.9-.4-2-1-.6-.3-.6-.4-.7-.4a65 65 0 0 1-6-4.1l-.7-1c-.2-.2-.3-.6-.3-.9a3.2 3.2 0 0 1 .6-1.8 13 13 0 0 1 2.9-2.5l2-1.3.5-.3.5-.3a62.5 62.5 0 0 1 4.7-2.4L44 7l.8-.3h.1z"/></g></svg>